<svg xmlns="http://www.w3.org/2000/svg" xmlns:xlink="http://www.w3.org/1999/xlink" width="500" zoomAndPan="magnify" viewBox="0 0 375 86.999996" height="116" preserveAspectRatio="xMidYMid meet" version="1.0"><defs><clipPath id="44313bc4e8"><path d="M 2.039062 2.039062 L 49.617188 2.039062 L 49.617188 84.960938 L 2.039062 84.960938 Z M 2.039062 2.039062 " clip-rule="nonzero"/></clipPath><clipPath id="275e443b0e"><path d="M 33.367188 55.515625 C 33.09375 56.691406 32.949219 57.921875 32.949219 59.183594 C 32.949219 60.980469 33.238281 62.714844 33.78125 64.328125 C 34.09375 65.273438 34.492188 66.171875 34.96875 67.027344 C 36.824219 70.394531 39.847656 73.039062 43.488281 74.40625 C 43.695312 74.484375 43.671875 74.777344 43.460938 74.828125 L 31.894531 77.699219 L 29.78125 78.222656 L 26.144531 79.121094 L 3.558594 84.730469 C 2.648438 84.953125 1.914062 83.976562 2.382812 83.164062 L 35.691406 25.472656 L 37.339844 22.621094 L 49.027344 2.378906 C 49.042969 2.351562 49.058594 2.332031 49.078125 2.3125 C 49.265625 2.121094 49.632812 2.308594 49.542969 2.605469 L 41.917969 27.535156 L 40.894531 30.878906 L 34.007812 53.402344 L 33.371094 55.5 C 33.371094 55.507812 33.367188 55.511719 33.367188 55.515625 " clip-rule="nonzero"/></clipPath><clipPath id="6178b1d2a8"><path d="M 0.0390625 0.0390625 L 47.617188 0.0390625 L 47.617188 82.960938 L 0.0390625 82.960938 Z M 0.0390625 0.0390625 " clip-rule="nonzero"/></clipPath><clipPath id="56f14064c3"><path d="M 31.367188 53.515625 C 31.09375 54.691406 30.949219 55.921875 30.949219 57.183594 C 30.949219 58.980469 31.238281 60.714844 31.78125 62.328125 C 32.09375 63.273438 32.492188 64.171875 32.96875 65.027344 C 34.824219 68.394531 37.847656 71.039062 41.488281 72.40625 C 41.695312 72.484375 41.671875 72.777344 41.460938 72.828125 L 29.894531 75.699219 L 27.78125 76.222656 L 24.144531 77.121094 L 1.558594 82.730469 C 0.648438 82.953125 -0.0859375 81.976562 0.382812 81.164062 L 33.691406 23.472656 L 35.339844 20.621094 L 47.027344 0.378906 C 47.042969 0.351562 47.058594 0.332031 47.078125 0.3125 C 47.265625 0.121094 47.632812 0.308594 47.542969 0.605469 L 39.917969 25.535156 L 38.894531 28.878906 L 32.007812 51.402344 L 31.371094 53.5 C 31.371094 53.507812 31.367188 53.511719 31.367188 53.515625 " clip-rule="nonzero"/></clipPath><clipPath id="361b6617eb"><rect x="0" width="48" y="0" height="83"/></clipPath><clipPath id="c144440c12"><path d="M 41 51 L 57.433594 51 L 57.433594 67.289062 L 41 67.289062 Z M 41 51 " clip-rule="nonzero"/></clipPath><clipPath id="5fe923d95c"><path d="M 57.304688 59.183594 C 57.304688 63.621094 53.738281 67.222656 49.3125 67.277344 C 49.277344 67.28125 49.242188 67.28125 49.207031 67.28125 C 44.734375 67.28125 41.109375 63.65625 41.109375 59.183594 C 41.109375 54.710938 44.734375 51.085938 49.207031 51.085938 C 49.242188 51.085938 49.277344 51.085938 49.3125 51.089844 C 53.738281 51.144531 57.304688 54.746094 57.304688 59.183594 " clip-rule="nonzero"/></clipPath><clipPath id="039414e612"><path d="M 0.0390625 0 L 16.359375 0 L 16.359375 16.289062 L 0.0390625 16.289062 Z M 0.0390625 0 " clip-rule="nonzero"/></clipPath><clipPath id="d153f76831"><path d="M 16.304688 8.183594 C 16.304688 12.621094 12.738281 16.222656 8.3125 16.277344 C 8.277344 16.28125 8.242188 16.28125 8.207031 16.28125 C 3.734375 16.28125 0.109375 12.65625 0.109375 8.183594 C 0.109375 3.710938 3.734375 0.0859375 8.207031 0.0859375 C 8.242188 0.0859375 8.277344 0.0859375 8.3125 0.0898438 C 12.738281 0.144531 16.304688 3.746094 16.304688 8.183594 " clip-rule="nonzero"/></clipPath><clipPath id="46c68f1188"><rect x="0" width="17" y="0" height="17"/></clipPath><clipPath id="4b63909610"><path d="M 41.121094 7.476562 L 96.515625 7.476562 L 96.515625 84.960938 L 41.121094 84.960938 Z M 41.121094 7.476562 " clip-rule="nonzero"/></clipPath><clipPath id="90e0b0b56d"><path d="M 96.363281 83.480469 C 96.867188 84.351562 95.703125 85.214844 95.015625 84.476562 L 61.335938 48.363281 L 60.808594 47.796875 C 58.6875 45.636719 55.96875 44.066406 52.910156 43.355469 C 51.757812 43.085938 50.554688 42.9375 49.3125 42.929688 L 49.207031 42.929688 C 46.535156 42.929688 44.007812 43.574219 41.785156 44.71875 C 41.609375 44.808594 41.414062 44.652344 41.46875 44.460938 L 44.347656 34.460938 L 45.296875 31.160156 L 49.3125 17.214844 L 51.949219 8.0625 C 52.058594 7.679688 52.570312 7.617188 52.769531 7.964844 Z M 96.363281 83.480469 " clip-rule="nonzero"/></clipPath><clipPath id="fe572aae78"><path d="M 0.28125 0.476562 L 55.515625 0.476562 L 55.515625 77.960938 L 0.28125 77.960938 Z M 0.28125 0.476562 " clip-rule="nonzero"/></clipPath><clipPath id="1b47fea2c4"><path d="M 55.363281 76.480469 C 55.867188 77.351562 54.703125 78.214844 54.015625 77.476562 L 20.335938 41.363281 L 19.808594 40.796875 C 17.6875 38.636719 14.96875 37.066406 11.910156 36.355469 C 10.757812 36.085938 9.554688 35.9375 8.3125 35.929688 L 8.207031 35.929688 C 5.535156 35.929688 3.007812 36.574219 0.785156 37.71875 C 0.609375 37.808594 0.414062 37.652344 0.46875 37.460938 L 3.347656 27.460938 L 4.296875 24.160156 L 8.3125 10.214844 L 10.949219 1.0625 C 11.058594 0.679688 11.570312 0.617188 11.769531 0.964844 Z M 55.363281 76.480469 " clip-rule="nonzero"/></clipPath><clipPath id="f4f0178724"><rect x="0" width="56" y="0" height="78"/></clipPath><clipPath id="d27415aebe"><path d="M 102.421875 19.355469 L 167.683594 19.355469 L 167.683594 67.648438 L 102.421875 67.648438 Z M 102.421875 19.355469 " clip-rule="nonzero"/></clipPath><clipPath id="7a45739994"><path d="M 123.226562 49.847656 L 146.949219 49.847656 L 135.988281 29.640625 C 135.78125 29.300781 135.574219 29.160156 135.234375 29.160156 L 134.816406 29.160156 C 134.46875 29.160156 134.269531 29.300781 134.0625 29.640625 Z M 136.601562 19.359375 C 140.121094 19.359375 142.261719 20.464844 144.535156 24.605469 L 167.371094 66.058594 C 167.851562 66.957031 167.644531 67.644531 166.542969 67.644531 L 157.777344 67.644531 C 156.882812 67.644531 156.535156 67.4375 156.195312 66.75 L 151.296875 57.847656 L 118.878906 57.847656 L 114.125 66.75 C 113.773438 67.4375 113.367188 67.644531 112.539062 67.644531 L 103.570312 67.644531 C 102.398438 67.644531 102.191406 66.957031 102.671875 66.058594 L 125.292969 24.605469 C 127.574219 20.464844 129.640625 19.359375 132.535156 19.359375 Z M 136.601562 19.359375 " clip-rule="nonzero"/></clipPath><clipPath id="f4d15efd8c"><path d="M 0.421875 0.355469 L 65.683594 0.355469 L 65.683594 48.648438 L 0.421875 48.648438 Z M 0.421875 0.355469 " clip-rule="nonzero"/></clipPath><clipPath id="54c723cc84"><path d="M 21.226562 30.847656 L 44.949219 30.847656 L 33.988281 10.640625 C 33.78125 10.300781 33.574219 10.160156 33.234375 10.160156 L 32.816406 10.160156 C 32.46875 10.160156 32.269531 10.300781 32.0625 10.640625 Z M 34.601562 0.359375 C 38.121094 0.359375 40.261719 1.464844 42.535156 5.605469 L 65.371094 47.058594 C 65.851562 47.957031 65.644531 48.644531 64.542969 48.644531 L 55.777344 48.644531 C 54.882812 48.644531 54.535156 48.4375 54.195312 47.75 L 49.296875 38.847656 L 16.878906 38.847656 L 12.125 47.75 C 11.773438 48.4375 11.367188 48.644531 10.539062 48.644531 L 1.570312 48.644531 C 0.398438 48.644531 0.191406 47.957031 0.671875 47.058594 L 23.292969 5.605469 C 25.574219 1.464844 27.640625 0.359375 30.535156 0.359375 Z M 34.601562 0.359375 " clip-rule="nonzero"/></clipPath><clipPath id="ba3d36b10b"><rect x="0" width="66" y="0" height="49"/></clipPath><clipPath id="3eea8321c6"><path d="M 170.078125 19.355469 L 218.152344 19.355469 L 218.152344 67.648438 L 170.078125 67.648438 Z M 170.078125 19.355469 " clip-rule="nonzero"/></clipPath><clipPath id="cc3cb42d0a"><path d="M 216.550781 19.359375 C 217.589844 19.359375 218.070312 19.839844 218.070312 20.878906 L 218.070312 49.433594 C 218.070312 62.675781 212.757812 67.636719 198.761719 67.636719 L 171.859375 67.636719 C 170.820312 67.636719 170.273438 67.15625 170.273438 66.121094 L 170.273438 59.363281 C 170.273438 58.328125 170.820312 57.847656 171.859375 57.847656 L 198.414062 57.847656 C 205.515625 57.847656 207.515625 55.707031 207.515625 48.394531 L 207.515625 20.878906 C 207.515625 19.839844 208.070312 19.359375 209.101562 19.359375 Z M 216.550781 19.359375 " clip-rule="nonzero"/></clipPath><clipPath id="2ab8af95f9"><path d="M 0.160156 0.355469 L 48.152344 0.355469 L 48.152344 48.648438 L 0.160156 48.648438 Z M 0.160156 0.355469 " clip-rule="nonzero"/></clipPath><clipPath id="cb41febec1"><path d="M 46.550781 0.359375 C 47.589844 0.359375 48.070312 0.839844 48.070312 1.878906 L 48.070312 30.433594 C 48.070312 43.675781 42.757812 48.636719 28.761719 48.636719 L 1.859375 48.636719 C 0.820312 48.636719 0.273438 48.15625 0.273438 47.121094 L 0.273438 40.363281 C 0.273438 39.328125 0.820312 38.847656 1.859375 38.847656 L 28.414062 38.847656 C 35.515625 38.847656 37.515625 36.707031 37.515625 29.394531 L 37.515625 1.878906 C 37.515625 0.839844 38.070312 0.359375 39.101562 0.359375 Z M 46.550781 0.359375 " clip-rule="nonzero"/></clipPath><clipPath id="cc3fe9a453"><rect x="0" width="49" y="0" height="49"/></clipPath><clipPath id="e774a314af"><path d="M 227.113281 19.171875 L 285.582031 19.171875 L 285.582031 67.832031 L 227.113281 67.832031 Z M 227.113281 19.171875 " clip-rule="nonzero"/></clipPath><clipPath id="4139719ad9"><path d="M 239.394531 19.359375 C 243.808594 19.359375 244.769531 19.914062 247.390625 23.425781 L 273.050781 57.089844 C 273.257812 57.429688 273.53125 57.570312 273.945312 57.570312 L 274.566406 57.570312 C 274.914062 57.570312 275.125 57.363281 275.125 56.882812 L 275.125 20.878906 C 275.125 19.839844 275.605469 19.359375 276.640625 19.359375 L 283.886719 19.359375 C 284.921875 19.359375 285.402344 19.839844 285.402344 20.878906 L 285.402344 60.46875 C 285.402344 66.054688 283.402344 67.644531 279.195312 67.644531 L 273.257812 67.644531 C 269.050781 67.644531 268.011719 67.230469 265.257812 63.570312 L 239.527344 29.914062 C 239.253906 29.574219 239.042969 29.433594 238.628906 29.433594 L 238.007812 29.433594 C 237.59375 29.433594 237.460938 29.640625 237.460938 30.121094 L 237.460938 66.125 C 237.460938 67.164062 236.976562 67.644531 235.941406 67.644531 L 228.699219 67.644531 C 227.667969 67.644531 227.113281 67.164062 227.113281 66.125 L 227.113281 26.539062 C 227.113281 20.945312 229.113281 19.359375 233.320312 19.359375 Z M 239.394531 19.359375 " clip-rule="nonzero"/></clipPath><clipPath id="c872aa81b6"><path d="M 0.113281 0.199219 L 58.582031 0.199219 L 58.582031 48.679688 L 0.113281 48.679688 Z M 0.113281 0.199219 " clip-rule="nonzero"/></clipPath><clipPath id="2ecc4d3df3"><path d="M 12.394531 0.359375 C 16.808594 0.359375 17.769531 0.914062 20.390625 4.425781 L 46.050781 38.089844 C 46.257812 38.429688 46.53125 38.570312 46.945312 38.570312 L 47.566406 38.570312 C 47.914062 38.570312 48.125 38.363281 48.125 37.882812 L 48.125 1.878906 C 48.125 0.839844 48.605469 0.359375 49.640625 0.359375 L 56.886719 0.359375 C 57.921875 0.359375 58.402344 0.839844 58.402344 1.878906 L 58.402344 41.46875 C 58.402344 47.054688 56.402344 48.644531 52.195312 48.644531 L 46.257812 48.644531 C 42.050781 48.644531 41.011719 48.230469 38.257812 44.570312 L 12.527344 10.914062 C 12.253906 10.574219 12.042969 10.433594 11.628906 10.433594 L 11.007812 10.433594 C 10.59375 10.433594 10.460938 10.640625 10.460938 11.121094 L 10.460938 47.125 C 10.460938 48.164062 9.976562 48.644531 8.941406 48.644531 L 1.699219 48.644531 C 0.667969 48.644531 0.113281 48.164062 0.113281 47.125 L 0.113281 7.539062 C 0.113281 1.945312 2.113281 0.359375 6.320312 0.359375 Z M 12.394531 0.359375 " clip-rule="nonzero"/></clipPath><clipPath id="b25b1d9c3c"><rect x="0" width="59" y="0" height="49"/></clipPath><clipPath id="baa0fd97c2"><path d="M 294.574219 19.351562 L 305.234375 19.351562 L 305.234375 67.648438 L 294.574219 67.648438 Z M 294.574219 19.351562 " clip-rule="nonzero"/></clipPath><clipPath id="82d51be0a4"><path d="M 303.613281 19.363281 C 304.652344 19.363281 305.132812 19.84375 305.132812 20.882812 L 305.132812 66.121094 C 305.132812 67.160156 304.652344 67.640625 303.613281 67.640625 L 296.164062 67.640625 C 295.125 67.640625 294.578125 67.160156 294.578125 66.121094 L 294.578125 20.882812 C 294.578125 19.84375 295.125 19.363281 296.164062 19.363281 Z M 303.613281 19.363281 " clip-rule="nonzero"/></clipPath><clipPath id="290b201135"><path d="M 0.574219 0.351562 L 11.234375 0.351562 L 11.234375 48.648438 L 0.574219 48.648438 Z M 0.574219 0.351562 " clip-rule="nonzero"/></clipPath><clipPath id="05eb4189cb"><path d="M 9.613281 0.363281 C 10.652344 0.363281 11.132812 0.84375 11.132812 1.882812 L 11.132812 47.121094 C 11.132812 48.160156 10.652344 48.640625 9.613281 48.640625 L 2.164062 48.640625 C 1.125 48.640625 0.578125 48.160156 0.578125 47.121094 L 0.578125 1.882812 C 0.578125 0.84375 1.125 0.363281 2.164062 0.363281 Z M 9.613281 0.363281 " clip-rule="nonzero"/></clipPath><clipPath id="72c0433ab6"><rect x="0" width="12" y="0" height="49"/></clipPath><clipPath id="929004eed2"><path d="M 311.109375 19.351562 L 370.71875 19.351562 L 370.71875 67.648438 L 311.109375 67.648438 Z M 311.109375 19.351562 " clip-rule="nonzero"/></clipPath><clipPath id="4210005d62"><path d="M 369.246094 67.648438 L 359.9375 67.648438 C 359.601562 67.648438 359.277344 67.515625 359.039062 67.277344 L 340.914062 49.152344 L 322.796875 67.277344 C 322.5625 67.515625 322.242188 67.648438 321.902344 67.648438 L 312.578125 67.648438 C 311.449219 67.648438 310.886719 66.285156 311.679688 65.484375 L 334.464844 42.703125 L 340.914062 36.265625 L 357.453125 19.726562 C 357.691406 19.488281 358.015625 19.355469 358.351562 19.355469 L 367.660156 19.355469 C 368.785156 19.355469 369.351562 20.71875 368.558594 21.511719 L 347.367188 42.714844 L 370.136719 65.484375 C 370.933594 66.285156 370.363281 67.648438 369.238281 67.648438 " clip-rule="nonzero"/></clipPath><clipPath id="a29319afdc"><path d="M 0.109375 0.351562 L 59.71875 0.351562 L 59.71875 48.648438 L 0.109375 48.648438 Z M 0.109375 0.351562 " clip-rule="nonzero"/></clipPath><clipPath id="fb9030286a"><path d="M 58.246094 48.648438 L 48.9375 48.648438 C 48.601562 48.648438 48.277344 48.515625 48.039062 48.277344 L 29.914062 30.152344 L 11.796875 48.277344 C 11.5625 48.515625 11.242188 48.648438 10.902344 48.648438 L 1.578125 48.648438 C 0.449219 48.648438 -0.113281 47.285156 0.679688 46.484375 L 23.464844 23.703125 L 29.914062 17.265625 L 46.453125 0.726562 C 46.691406 0.488281 47.015625 0.355469 47.351562 0.355469 L 56.660156 0.355469 C 57.785156 0.355469 58.351562 1.71875 57.558594 2.511719 L 36.367188 23.714844 L 59.136719 46.484375 C 59.933594 47.285156 59.363281 48.648438 58.238281 48.648438 " clip-rule="nonzero"/></clipPath><clipPath id="7a31cd62fd"><rect x="0" width="60" y="0" height="49"/></clipPath><clipPath id="e196f568b1"><path d="M 312.847656 19.351562 L 339.171875 19.351562 L 339.171875 41 L 312.847656 41 Z M 312.847656 19.351562 " clip-rule="nonzero"/></clipPath><clipPath id="c0fb795057"><path d="M 339.136719 34.480469 L 332.6875 40.917969 L 313.28125 21.519531 C 312.488281 20.71875 313.042969 19.355469 314.167969 19.355469 L 323.488281 19.355469 C 323.8125 19.355469 324.144531 19.496094 324.375 19.726562 Z M 339.136719 34.480469 " clip-rule="nonzero"/></clipPath><clipPath id="59108327bd"><path d="M 0.847656 0.351562 L 27.171875 0.351562 L 27.171875 22 L 0.847656 22 Z M 0.847656 0.351562 " clip-rule="nonzero"/></clipPath><clipPath id="dc73810314"><path d="M 27.136719 15.480469 L 20.6875 21.917969 L 1.28125 2.519531 C 0.488281 1.71875 1.042969 0.355469 2.167969 0.355469 L 11.488281 0.355469 C 11.8125 0.355469 12.144531 0.496094 12.375 0.726562 Z M 27.136719 15.480469 " clip-rule="nonzero"/></clipPath><clipPath id="f4a54bd6f6"><rect x="0" width="28" y="0" height="22"/></clipPath></defs><g clip-path="url(#44313bc4e8)"><g clip-path="url(#275e443b0e)"><g transform="matrix(1, 0, 0, 1, 2, 2)"><g clip-path="url(#361b6617eb)"><g clip-path="url(#6178b1d2a8)"><g clip-path="url(#56f14064c3)"><rect x="-84.5" width="540" fill="#6366f1" height="125.279994" y="-21.139999" fill-opacity="1"/></g></g></g></g></g></g><g clip-path="url(#c144440c12)"><g clip-path="url(#5fe923d95c)"><g transform="matrix(1, 0, 0, 1, 41, 51)"><g clip-path="url(#46c68f1188)"><g clip-path="url(#039414e612)"><g clip-path="url(#d153f76831)"><rect x="-123.5" width="540" fill="#6366f1" height="125.279994" y="-70.139999" fill-opacity="1"/></g></g></g></g></g></g><g clip-path="url(#4b63909610)"><g clip-path="url(#90e0b0b56d)"><g transform="matrix(1, 0, 0, 1, 41, 7)"><g clip-path="url(#f4f0178724)"><g clip-path="url(#fe572aae78)"><g clip-path="url(#1b47fea2c4)"><rect x="-123.5" width="540" fill="#7c3aed" height="125.279994" y="-26.139999" fill-opacity="1"/></g></g></g></g></g></g><g clip-path="url(#d27415aebe)"><g clip-path="url(#7a45739994)"><g transform="matrix(1, 0, 0, 1, 102, 19)"><g clip-path="url(#ba3d36b10b)"><g clip-path="url(#f4d15efd8c)"><g clip-path="url(#54c723cc84)"><rect x="-184.5" width="540" fill="#141416" height="125.279994" y="-38.139999" fill-opacity="1"/></g></g></g></g></g></g><g clip-path="url(#3eea8321c6)"><g clip-path="url(#cc3cb42d0a)"><g transform="matrix(1, 0, 0, 1, 170, 19)"><g clip-path="url(#cc3fe9a453)"><g clip-path="url(#2ab8af95f9)"><g clip-path="url(#cb41febec1)"><rect x="-252.5" width="540" fill="#141416" height="125.279994" y="-38.139999" fill-opacity="1"/></g></g></g></g></g></g><g clip-path="url(#e774a314af)"><g clip-path="url(#4139719ad9)"><g transform="matrix(1, 0, 0, 1, 227, 19)"><g clip-path="url(#b25b1d9c3c)"><g clip-path="url(#c872aa81b6)"><g clip-path="url(#2ecc4d3df3)"><path fill="#141416" d="M 0.113281 0.359375 L 58.390625 0.359375 L 58.390625 48.644531 L 0.113281 48.644531 Z M 0.113281 0.359375 " fill-opacity="1" fill-rule="nonzero"/></g></g></g></g></g></g><g clip-path="url(#baa0fd97c2)"><g clip-path="url(#82d51be0a4)"><g transform="matrix(1, 0, 0, 1, 294, 19)"><g clip-path="url(#72c0433ab6)"><g clip-path="url(#290b201135)"><g clip-path="url(#05eb4189cb)"><rect x="-376.5" width="540" fill="#141416" height="125.279994" y="-38.139999" fill-opacity="1"/></g></g></g></g></g></g><g clip-path="url(#929004eed2)"><g clip-path="url(#4210005d62)"><g transform="matrix(1, 0, 0, 1, 311, 19)"><g clip-path="url(#7a31cd62fd)"><g clip-path="url(#a29319afdc)"><g clip-path="url(#fb9030286a)"><rect x="-393.5" width="540" fill="#141416" height="125.279994" y="-38.139999" fill-opacity="1"/></g></g></g></g></g></g><g clip-path="url(#e196f568b1)"><g clip-path="url(#c0fb795057)"><g transform="matrix(1, 0, 0, 1, 312, 19)"><g clip-path="url(#f4a54bd6f6)"><g clip-path="url(#59108327bd)"><g clip-path="url(#dc73810314)"><rect x="-394.5" width="540" fill="#6366f1" height="125.279994" y="-38.139999" fill-opacity="1"/></g></g></g></g></g></g></svg>