<?xml version="1.0" encoding="utf-8"?>
<!-- Generator: Adobe Illustrator 24.1.2, SVG Export Plug-In . SVG Version: 6.00 Build 0)  -->
<svg version="1.1" id="Design" xmlns="http://www.w3.org/2000/svg" xmlns:xlink="http://www.w3.org/1999/xlink" x="0px" y="0px"
	 viewBox="0 0 639.88 560.28" style="enable-background:new 0 0 639.88 560.28;" xml:space="preserve">
<style type="text/css">
	.st0{fill:#6366F1;}
	.st1{fill:#7C3AED;}
</style>
<g id="Icon_4_">
	<path class="st0" d="M211.33,361.73c-1.85,7.99-2.82,16.34-2.82,24.91c0,12.21,1.97,23.96,5.65,34.93
		c2.13,6.41,4.83,12.51,8.05,18.31c12.6,22.87,33.14,40.82,57.86,50.12c1.4,0.52,1.25,2.52-0.18,2.86l-78.54,19.5L187,515.9
		L162.3,522L8.95,560.06c-6.17,1.52-11.15-5.1-7.96-10.63l226.13-391.66l11.18-19.38L317.66,0.99c0.09-0.18,0.21-0.33,0.33-0.46
		c1.28-1.31,3.77-0.03,3.16,1.97L269.4,171.77l-6.96,22.69L215.7,347.39l-4.34,14.24C211.36,361.67,211.33,361.7,211.33,361.73z"/>
	<path class="st0" d="M373.86,386.63c0,30.13-24.21,54.58-54.25,54.94c-0.24,0.03-0.49,0.03-0.73,0.03
		c-30.37,0-54.98-24.6-54.98-54.98c0-30.37,24.6-54.98,54.98-54.98c0.24,0,0.49,0,0.73,0.03
		C349.65,332.05,373.86,356.5,373.86,386.63z"/>
	<path class="st1" d="M639.05,551.57c3.41,5.91-4.51,11.77-9.16,6.78L401.23,313.13l-3.58-3.83c-14.4-14.67-32.86-25.33-53.61-30.16
		c-7.84-1.82-16.01-2.82-24.42-2.89h-0.73c-18.13,0-35.29,4.38-50.39,12.16c-1.19,0.61-2.53-0.46-2.16-1.75l19.57-67.88l6.44-22.42
		l27.27-94.67l17.89-62.14c0.74-2.57,4.21-3,5.55-0.68L639.05,551.57z"/>
</g>
</svg>
